<svg xmlns="http://www.w3.org/2000/svg" xmlns:xlink="http://www.w3.org/1999/xlink" width="30" height="30" version="1.1" viewBox="0 0 30 30"><title>7C6B133C-AD1B-4638-9FD1-5D2FB4E91FBE</title><defs><path id="path-1" d="M1.117,0.085 C0.499,0.085 -0.001,0.585 -0.001,1.206 L-0.001,1.206 L-0.001,21.878 C-0.001,22.5 0.499,23 1.117,23 L1.117,23 L15.804,23 C16.424,23 16.922,22.5 16.922,21.878 L16.922,21.878 L16.922,1.206 C16.922,0.585 16.424,0.085 15.804,0.085 L15.804,0.085 L1.117,0.085 Z M0.958,21.703 L15.965,21.703 L15.965,1.382 L0.958,1.382 L0.958,21.703 Z"/><polygon id="path-3" points=".073 .559 10.85 .559 10.85 1.642 .073 1.642"/><polygon id="path-5" points=".073 .865 10.85 .865 10.85 1.946 .073 1.946"/><polygon id="path-7" points=".073 .169 10.85 .169 10.85 1.251 .073 1.251"/><polygon id="path-9" points=".703 .475 6.85 .475 6.85 1.556 .703 1.556"/><polygon id="path-11" points=".013 .121 .013 5.543 1.675 3.874 3.371 5.575 3.371 .121"/></defs><g id="---Developers" fill="none" fill-rule="evenodd" stroke="none" stroke-width="1"><g id="Icons" transform="translate(-1044.000000, -1123.000000)"><g id="Icon/Home" transform="translate(1044.000000, 1123.000000)"><g id="Group-39" transform="translate(7.000000, 2.000000)"><path id="Fill-1" fill="#A5AEBF" d="M1.5494,22.9046 L15.4284,22.9046 C15.4284,21.9016 14.6144,21.0876 13.6124,21.0876 L3.3664,21.0876 C2.3624,21.0876 1.5494,21.9016 1.5494,22.9046 L1.5494,22.9046 Z"/><path id="Fill-3" fill="#422D98" d="M1.1177,0.9998 C0.4987,0.9998 -0.0003,1.4998 -0.0003,2.1218 L-0.0003,22.7938 C-0.0003,23.4158 0.4987,23.9158 1.1177,23.9158 L15.8047,23.9158 C16.4237,23.9158 16.9227,23.4158 16.9227,22.7938 L16.9227,2.1218 C16.9227,1.4998 16.4237,0.9998 15.8047,0.9998 L1.1177,0.9998 Z M0.9577,22.6178 L15.9647,22.6178 L15.9647,2.2968 L0.9577,2.2968 L0.9577,22.6178 Z"/><g id="Group-8" transform="translate(0.000000, 0.915500)"><mask id="mask-2" fill="#fff"><use xlink:href="#path-1"/></mask><polygon id="Fill-5" fill="#422D98" points="-.011 23.057 16.989 23.057 16.989 .057 -.011 .057" mask="url(#mask-2)"/><polygon id="Fill-7" fill="#A5AEBF" points="-5 31 21.923 31 21.923 -1.915 -5 -1.915" mask="url(#mask-2)"/></g><polygon id="Fill-9" fill="#7169AD" points="3.073 9.556 13.849 9.556 13.849 8.475 3.073 8.475"/><g id="Group-14" transform="translate(3.000000, 7.915500)"><mask id="mask-4" fill="#fff"><use xlink:href="#path-3"/></mask><polygon id="Fill-11" fill="#7169AD" points="-3.011 16.057 13.989 16.057 13.989 -6.943 -3.011 -6.943" mask="url(#mask-4)"/><polygon id="Fill-13" fill="#FFF" points="-4.927 6.641 15.849 6.641 15.849 -4.441 -4.927 -4.441" mask="url(#mask-4)"/></g><polygon id="Fill-15" fill="#7169AD" points="3.073 12.863 13.849 12.863 13.849 11.78 3.073 11.78"/><g id="Group-20" transform="translate(3.000000, 10.915500)"><mask id="mask-6" fill="#fff"><use xlink:href="#path-5"/></mask><polygon id="Fill-17" fill="#7169AD" points="-3.011 13.057 13.989 13.057 13.989 -9.943 -3.011 -9.943" mask="url(#mask-6)"/><polygon id="Fill-19" fill="#FFF" points="-4.927 6.947 15.849 6.947 15.849 -4.135 -4.927 -4.135" mask="url(#mask-6)"/></g><polygon id="Fill-21" fill="#7169AD" points="3.073 16.168 13.849 16.168 13.849 15.085 3.073 15.085"/><g id="Group-26" transform="translate(3.000000, 14.915500)"><mask id="mask-8" fill="#fff"><use xlink:href="#path-7"/></mask><polygon id="Fill-23" fill="#7169AD" points="-3.011 9.057 13.989 9.057 13.989 -13.943 -3.011 -13.943" mask="url(#mask-8)"/><polygon id="Fill-25" fill="#FFF" points="-4.927 6.252 15.849 6.252 15.849 -4.83 -4.927 -4.83" mask="url(#mask-8)"/></g><polygon id="Fill-27" fill="#7169AD" points="7.703 19.473 13.849 19.473 13.849 18.39 7.703 18.39"/><g id="Group-32" transform="translate(7.000000, 17.915500)"><mask id="mask-10" fill="#fff"><use xlink:href="#path-9"/></mask><polygon id="Fill-29" fill="#7169AD" points="-7.011 6.057 9.989 6.057 9.989 -16.943 -7.011 -16.943" mask="url(#mask-10)"/><polygon id="Fill-31" fill="#FFF" points="-4.297 6.557 11.849 6.557 11.849 -3.443 -4.297 -3.443" mask="url(#mask-10)"/></g><polygon id="Fill-33" fill="#BBE2D5" points="3.012 1.036 3.012 6.459 4.675 4.789 6.37 6.491 6.37 1.036"/><g id="Group-38" transform="translate(3.000000, 0.915500)"><mask id="mask-12" fill="#fff"><use xlink:href="#path-11"/></mask><polygon id="Fill-35" fill="#BBE2D5" points="-3.011 23.057 13.989 23.057 13.989 .057 -3.011 .057" mask="url(#mask-12)"/><polygon id="Fill-37" fill="#A5AEBF" points="-4.988 10.575 8.37 10.575 8.37 -4.88 -4.988 -4.88" mask="url(#mask-12)"/></g></g></g></g></g></svg>