<svg xmlns="http://www.w3.org/2000/svg" xmlns:xlink="http://www.w3.org/1999/xlink" width="45" height="46" version="1.1" viewBox="0 0 45 46"><title>White Paper</title><desc>Created with Sketch.</desc><defs><circle id="path-1" cx="18" cy="18" r="18"/></defs><g id="Member-Portal" fill="none" fill-rule="evenodd" stroke="none" stroke-width="1"><g id="Member-Portal-Mobile-Nav---Closed" transform="translate(-264.000000, -7.000000)"><g id="UHF---Mobile-Default"><g id="White-Paper" transform="translate(263.000000, 7.000000)"><g id="Group-3" transform="translate(6.500000, 0.000000)"><mask id="mask-2" fill="#fff"><use xlink:href="#path-1"/></mask><use id="Oval" fill="#FAFAFA" xlink:href="#path-1"/><g id="Document-Illustrataion" mask="url(#mask-2)"><g transform="translate(1.550071, 5.250000)"><polygon id="Rectangle-Copy-2" fill="#706AAF" points="2.511 4.116 28.695 4.122 28.704 38.219 2.52 38.213" transform="translate(15.607243, 21.167488) rotate(-9.000000) translate(-15.607243, -21.167488)"/><polygon id="Rectangle-Copy" fill="#42318C" points="4.455 1.921 30.64 1.925 30.645 36.021 4.461 36.017" transform="translate(17.550373, 18.971255) rotate(-5.000000) translate(-17.550373, -18.971255)"/><polygon id="Rectangle" fill="#EFEFEF" points="6.398 0 32.592 0 32.592 34.162 6.398 34.162"/><rect id="Rectangle" width="11.045" height="1" x="9.536" y="6.639" fill="#AEAEAE"/><rect id="Rectangle-Copy-3" width="15.391" height="1" x="9.597" y="10.261" fill="#AEAEAE"/><rect id="Rectangle-Copy-4" width="19.435" height="1" x="9.536" y="11.89" fill="#AEAEAE"/><rect id="Rectangle-Copy-5" width="8.208" height="1" x="9.536" y="13.58" fill="#AEAEAE"/><rect id="Rectangle-Copy-7" width="7.001" height="1" x="9.536" y="17.564" fill="#AEAEAE"/><rect id="Rectangle-Copy-8" width="15.27" height="1" x="9.597" y="19.254" fill="#AEAEAE"/><rect id="Rectangle-Copy-12" width="15.27" height="1" x="9.597" y="24.143" fill="#AEAEAE"/><rect id="Rectangle-Copy-9" width="8.208" height="1" x="9.536" y="20.823" fill="#AEAEAE"/><rect id="Rectangle-Copy-11" width="12.373" height="1" x="9.536" y="22.453" fill="#AEAEAE"/><rect id="Rectangle-Copy-10" width="9.778" height="1" x="19.193" y="20.823" fill="#AEAEAE"/><rect id="Rectangle-Copy-6" width="8.208" height="1" x="19.193" y="13.58" fill="#AEAEAE"/></g></g></g><text fill="#39298C" font-family="NBInternationalPro-Reg, NB International Pro" font-size="8" font-weight="normal"><tspan x="1.664" y="44">White Paper</tspan></text></g></g></g></g></svg>