<svg xmlns="http://www.w3.org/2000/svg" xmlns:xlink="http://www.w3.org/1999/xlink" style="enable-background:new 0 0 45 46" id="Layer_1" x="0" y="0" version="1.1" viewBox="0 0 45 46" xml:space="preserve"><style type="text/css">.st0{fill:#282c35}.st0,.st1,.st2,.st3,.st4{fill-rule:evenodd;clip-rule:evenodd}.st1{fill:#706aaf}.st2{fill:#42318c}.st3{fill:#efefef}.st4{fill:#aeaeae}</style><g><g transform="translate(-1) translate(6.5)"><g><circle id="a_1_" cx="17" cy="22.6" r="18" class="st0"/></g><circle id="a_2_" cx="17" cy="22.6" r="18" class="st0"/><path d="M26.5,12.2L0.6,16.2l2.9,18.1c3.3,3.8,8.2,6.2,13.6,6.2c5.1,0,9.8-2.2,13-5.6L26.5,12.2z" class="st1"/><path d="M29.7,10.7L3.6,13l2.1,23.6c3.1,2.5,7.1,4,11.4,4c6,0,11.4-3,14.6-7.5L29.7,10.7z" class="st2"/><path d="M33.2,14.7c-0.9-1.8-2-3.4-3.4-4.8H7v27.7c2.9,1.9,6.3,3.1,10,3.1c7.1,0,13.2-4.1,16.2-10.1V14.7z" class="st3"/><g><path d="M10.1,16.5h11v1h-11V16.5z" class="st4"/><path d="M10.2,20h15.4v1H10.2V20z" class="st4"/><path d="M10.1,21.8h19.5v1H10.1V21.8z" class="st4"/><path d="M10.1,23.5h8.2v1h-8.2V23.5z" class="st4"/><path d="M10.1,27.5h7v1h-7V27.5z" class="st4"/><path d="M10.2,29h16.3l-1,1H10.2V29z" class="st4"/><path d="M10.2,34h15.3v1H10.2V34z" class="st4"/><path d="M10.1,30.6h8.2v1h-8.2V30.6z" class="st4"/><path d="M10.1,32.2h12.4v1H10.1V32.2z" class="st4"/><path d="M19.8,30.6h9.8v1h-9.8V30.6z" class="st4"/><path d="M19.8,23.5H28v1h-8.2V23.5z" class="st4"/></g></g></g></svg>